<svg width="29" height="30" viewBox="0 0 29 30" fill="none" xmlns="http://www.w3.org/2000/svg">
<path d="M12.455 20.4281C13.1749 21.6015 15.2849 22.5951 17.5252 22.5951C24.1966 22.5951 29 17.3679 29 10.8774C29 4.65645 23.0361 0 15.3655 0C5.82081 0 0.75676 5.45455 0.75676 11.4006C0.75676 14.1649 2.48201 17.6004 5.24366 18.6945C5.66566 18.8636 5.88907 18.7896 5.98216 18.4461C6.05663 18.1818 6.42899 16.908 6.59655 16.3108C6.65861 16.1205 6.60276 15.9144 6.4414 15.7717C5.52913 14.8256 4.79683 13.092 4.79683 11.4746C4.79683 7.3203 8.48936 3.2981 14.7822 3.2981C20.2186 3.2981 24.0228 6.4482 24.0228 10.9619C24.0228 16.0571 21.0005 19.5877 17.066 19.5877C14.8939 19.5877 13.2679 18.0603 13.7892 16.1839C14.416 13.9429 15.62 11.5275 15.62 9.91015C15.62 8.46195 14.7077 7.25687 12.8211 7.25687C10.5994 7.25687 8.81828 9.21247 8.81828 11.8288C8.81828 13.4989 9.48232 14.6247 9.48232 14.6247C9.48232 14.6247 7.29162 22.5159 6.88823 23.9852C6.42899 25.6765 6.63999 28.1025 6.83858 29.5825C7.29162 29.7304 7.73845 29.8784 8.20389 30C9.10375 28.7685 10.5559 26.6015 11.071 24.8996C11.3441 24.0275 12.455 20.4281 12.455 20.4281Z" fill="white"/>
</svg>
