<svg width="33" height="30" viewBox="0 0 33 30" fill="none" xmlns="http://www.w3.org/2000/svg">
<path d="M10.885 15C10.885 12.2387 13.2928 9.9996 16.2638 9.9996C19.2348 9.9996 21.6439 12.2387 21.6439 15C21.6439 17.7613 19.2348 20.0004 16.2638 20.0004C13.2928 20.0004 10.885 17.7613 10.885 15ZM7.97665 15C7.97665 19.254 11.6868 22.7023 16.2638 22.7023C20.8408 22.7023 24.551 19.254 24.551 15C24.551 10.746 20.8408 7.29768 16.2638 7.29768C11.6868 7.29768 7.97665 10.746 7.97665 15ZM22.9424 6.99228C22.9422 7.34829 23.0557 7.69634 23.2684 7.99243C23.481 8.28852 23.7834 8.51934 24.1372 8.65571C24.4911 8.79208 24.8804 8.82787 25.2562 8.75855C25.6319 8.68924 25.977 8.51793 26.248 8.2663C26.5189 8.01467 26.7035 7.69401 26.7784 7.34487C26.8533 6.99573 26.8151 6.6338 26.6686 6.30483C26.5222 5.97587 26.2741 5.69466 25.9557 5.49675C25.6373 5.29885 25.2629 5.19314 24.8799 5.193H24.8791C24.3657 5.19322 23.8733 5.38284 23.5102 5.7202C23.1471 6.05756 22.9428 6.51508 22.9424 6.99228V6.99228ZM9.74367 27.2096C8.17019 27.143 7.31495 26.8994 6.7466 26.6936C5.9931 26.421 5.45548 26.0963 4.89023 25.5716C4.32497 25.047 3.97508 24.5478 3.68303 23.8475C3.46147 23.3195 3.19938 22.5244 3.12785 21.0619C3.04961 19.4808 3.03398 19.0058 3.03398 15.0001C3.03398 10.9944 3.0509 10.5208 3.12785 8.93832C3.1995 7.47588 3.46354 6.68232 3.68303 6.15276C3.97637 5.45244 4.32575 4.95276 4.89023 4.4274C5.4547 3.90204 5.99181 3.57684 6.7466 3.3054C7.31469 3.09948 8.17019 2.85588 9.74367 2.7894C11.4449 2.71668 11.9559 2.70216 16.2638 2.70216C20.5718 2.70216 21.0833 2.71788 22.7859 2.7894C24.3594 2.856 25.2132 3.1014 25.783 3.3054C26.5365 3.57684 27.0741 3.90276 27.6394 4.4274C28.2046 4.95204 28.5532 5.45244 28.8466 6.15276C29.0681 6.68076 29.3302 7.47588 29.4017 8.93832C29.48 10.5208 29.4956 10.9944 29.4956 15.0001C29.4956 19.0058 29.48 19.4795 29.4017 21.0619C29.3301 22.5244 29.0667 23.3192 28.8466 23.8475C28.5532 24.5478 28.2038 25.0475 27.6394 25.5716C27.0749 26.0958 26.5365 26.421 25.783 26.6936C25.2149 26.8996 24.3594 27.1432 22.7859 27.2096C21.0847 27.2824 20.5737 27.2969 16.2638 27.2969C11.9539 27.2969 11.4443 27.2824 9.74367 27.2096V27.2096ZM9.61004 0.09084C7.89195 0.16356 6.71793 0.41676 5.69266 0.78756C4.63084 1.17048 3.73196 1.6842 2.83373 2.51772C1.9355 3.35124 1.38419 4.188 0.972194 5.17488C0.573238 6.1284 0.300812 7.21896 0.22257 8.8158C0.143037 10.4152 0.124832 10.9265 0.124832 15C0.124832 19.0735 0.143037 19.5848 0.22257 21.1842C0.300812 22.7812 0.573238 23.8716 0.972194 24.8251C1.38419 25.8114 1.93563 26.6491 2.83373 27.4823C3.73183 28.3154 4.63084 28.8284 5.69266 29.2124C6.71987 29.5832 7.89195 29.8364 9.61004 29.9092C11.3318 29.9819 11.881 30 16.2638 30C20.6467 30 21.1968 29.9831 22.9176 29.9092C24.6358 29.8364 25.8091 29.5832 26.835 29.2124C27.8962 28.8284 28.7957 28.3158 29.6939 27.4823C30.5922 26.6488 31.1423 25.8114 31.5555 24.8251C31.9544 23.8716 32.2281 22.781 32.3051 21.1842C32.3833 19.5836 32.4015 19.0735 32.4015 15C32.4015 10.9265 32.3833 10.4152 32.3051 8.8158C32.2268 7.21884 31.9544 6.1278 31.5555 5.17488C31.1423 4.1886 30.5907 3.35256 29.6939 2.51772C28.7971 1.68288 27.8962 1.17048 26.8363 0.78756C25.8091 0.41676 24.6357 0.16236 22.9189 0.09084C21.1981 0.01812 20.648 0 16.2651 0C11.8823 0 11.3318 0.01692 9.61004 0.09084Z" fill="white"/>
</svg>
