<svg width="32" height="24" viewBox="0 0 32 24" fill="none" xmlns="http://www.w3.org/2000/svg">
<path d="M28.2876 5.8125C28.2876 6.075 28.2876 6.3375 28.2876 6.5625C28.2876 14.325 21.9127 23.2875 10.2926 23.2875C6.70167 23.2875 3.39318 22.3125 0.568851 20.6625C1.05302 20.7 1.57754 20.7375 2.06171 20.7375C5.00708 20.7375 7.7507 19.8 9.92947 18.225C7.14549 18.1875 4.80534 16.4625 4.03874 14.1375C4.44221 14.2125 4.80534 14.25 5.24916 14.25C5.81402 14.25 6.37889 14.175 6.90341 14.025C3.99839 13.5 1.81962 11.1375 1.81962 8.2875C1.81962 8.25 1.81962 8.25 1.81962 8.2125C2.66692 8.6625 3.63526 8.925 4.6843 8.9625C2.9897 7.9125 1.85997 6.1125 1.85997 4.05C1.85997 2.9625 2.18275 1.95 2.70727 1.0875C5.81402 4.65 10.4943 6.975 15.7395 7.2375C15.6185 6.825 15.5781 6.3375 15.5781 5.8875C15.5781 2.625 18.4024 0 21.9127 0C23.7283 0 25.3826 0.7125 26.5123 1.8375C27.9648 1.575 29.2963 1.0875 30.547 0.4125C30.0629 1.8 29.0542 2.925 27.7631 3.675C29.0542 3.525 30.2646 3.225 31.3943 2.7375C30.5874 3.9375 29.5383 4.9875 28.2876 5.8125Z" fill="white"/>
</svg>
